<?xml version="1.0" standalone="no"?>
<!DOCTYPE svg PUBLIC "-//W3C//DTD SVG 20010904//EN"
 "http://www.w3.org/TR/2001/REC-SVG-20010904/DTD/svg10.dtd">
<svg version="1.0" xmlns="http://www.w3.org/2000/svg"
 width="512.000000pt" height="512.000000pt" viewBox="0 0 512.000000 512.000000"
 preserveAspectRatio="xMidYMid meet">
<metadata>
Created by potrace 1.14, written by Peter Selinger 2001-2017
</metadata>
<g transform="translate(0.000000,512.000000) scale(0.100000,-0.100000)"
fill="#000000" stroke="none">
<path d="M2488 5115 c-1 -1 -25 -5 -53 -9 -252 -31 -508 -144 -713 -314 -256
-212 -442 -538 -487 -852 -3 -25 -8 -61 -11 -80 -8 -53 -8 -227 0 -295 40
-333 174 -613 406 -845 303 -305 705 -448 1140 -407 83 8 83 8 190 32 417 96
787 412 960 819 42 99 79 219 82 264 1 6 4 12 8 12 14 0 391 -392 386 -403
-67 -158 -32 -307 95 -402 l26 -20 -47 -175 c-150 -552 -172 -635 -175 -649
-2 -9 -18 -68 -36 -131 -17 -63 -32 -119 -33 -125 -2 -5 -8 -30 -15 -55 -7
-25 -14 -52 -16 -60 -2 -8 -8 -27 -14 -43 -6 -15 -9 -27 -6 -27 2 0 0 -12 -6
-28 l-9 -27 -171 0 c-111 0 -188 -4 -218 -13 -25 -7 -53 -14 -60 -15 -13 -2
-15 53 -16 382 l0 383 -24 19 c-23 18 -64 19 -1457 19 l-1433 0 -21 -22 c-11
-12 -21 -29 -21 -37 -1 -9 -2 -263 -3 -564 l-1 -549 -100 -52 c-55 -29 -172
-90 -260 -135 -383 -200 -360 -185 -371 -229 -9 -32 12 -74 46 -94 17 -9 105
-56 198 -104 92 -47 212 -110 267 -139 55 -29 140 -74 189 -99 l88 -46 2082 2
c1968 3 2083 4 2113 21 43 23 87 67 110 108 16 31 18 61 17 324 0 160 -1 306
-2 325 0 19 0 89 1 155 2 112 0 124 -25 176 -44 88 -122 152 -218 176 -19 5
-149 9 -287 8 -165 0 -253 3 -253 10 0 5 5 27 11 49 6 21 12 46 14 55 2 9 40
149 85 311 45 162 83 302 85 310 10 46 137 509 145 527 6 15 18 23 34 23 52 0
136 41 186 90 151 152 111 398 -80 495 -73 37 -157 43 -235 16 l-60 -20 -241
242 -241 242 -6 135 c-15 340 -145 647 -383 898 -209 223 -463 360 -779 422
-53 11 -368 23 -377 15z"/>
</g>
</svg>
